<?xml version="1.0" encoding="UTF-8" standalone="no"?><!DOCTYPE svg PUBLIC "-//W3C//DTD SVG 1.1//EN" "http://www.w3.org/Graphics/SVG/1.1/DTD/svg11.dtd"><svg width="100%" height="100%" viewBox="0 0 2512 1750" version="1.1" xmlns="http://www.w3.org/2000/svg" xmlns:xlink="http://www.w3.org/1999/xlink" xml:space="preserve" xmlns:serif="http://www.serif.com/" style="fill-rule:evenodd;clip-rule:evenodd;stroke-linejoin:round;stroke-miterlimit:2;"><g><path d="M2034.83,1278.02c53.551,199.853 -65.229,405.586 -265.083,459.136c-199.853,53.551 -405.586,-65.229 -459.136,-265.082l724.219,-194.054Z" style="fill:#142b6f;"/><path d="M1936.9,307.705c57.864,-36.589 126.445,-57.783 199.938,-57.783c206.903,0 374.883,167.98 374.883,374.884c-0,206.904 -167.98,374.883 -374.883,374.883c-73.493,0 -142.074,-21.193 -199.938,-57.783l-0,181.235l-174.946,46.876l0,-907.599l174.946,0l-0,45.287Zm-0,317.101c-0,-110.349 89.589,-199.938 199.938,-199.938c110.348,-0 199.937,89.589 199.937,199.938c0,110.348 -89.589,199.938 -199.937,199.938c-110.349,-0 -199.938,-89.59 -199.938,-199.938Z" style="fill:#142b6f;"/><path d="M1587.01,-0l-0,987.193l-174.946,0l-0,-45.287c-57.864,36.59 -126.446,57.783 -199.938,57.783c-206.904,0 -374.883,-167.979 -374.883,-374.883c-0,-206.904 167.979,-374.884 374.883,-374.884c73.492,0 142.074,21.194 199.938,57.783l-0,-307.705l174.946,-0Zm-174.946,624.806c-0,110.348 -89.589,199.938 -199.938,199.938c-110.349,-0 -199.938,-89.59 -199.938,-199.938c0,-110.349 89.589,-199.938 199.938,-199.938c110.349,-0 199.938,89.589 199.938,199.938Z" style="fill:#142b6f;"/><path d="M174.946,296.793c51.485,-29.808 111.238,-46.871 174.945,-46.871c193.11,0 349.891,156.781 349.891,349.891l0,387.38l-174.945,0l-0.004,-388.51c-0.608,-96.035 -78.763,-173.815 -174.942,-173.815c-96.555,-0 -174.945,78.39 -174.945,174.945l-0,387.38l-174.946,0l0,-987.193l174.946,-0l-0,296.793Z" style="fill:#142b6f;"/></g></svg>